   <svg id="Layer_2" xmlns="http://www.w3.org/2000/svg" viewBox="0 0 348.5 472.32"><defs><style>.cls-1{fill:#fff;}.cls-2{fill:#ff2478;}</style></defs><g id="Logo-and-bg"><path class="cls-2" d="m98.03,472.32h-7.16l37.01-102.99h6.93l-36.78,102.99Z"/><path class="cls-1" d="m296.07,424.15c0-4.92.7-9.2,2.11-12.86,1.41-3.65,3.26-6.71,5.53-9.17,2.28-2.46,4.88-4.29,7.81-5.48,2.93-1.19,5.95-1.79,9.06-1.79,6.87,0,12.35,2.24,16.44,6.73,4.09,4.49,6.13,11.39,6.13,20.72,0,.58-.02,1.16-.05,1.74-.04.58-.09,1.12-.16,1.63h-39.38c.22,6.87,1.92,12.15,5.1,15.84,3.18,3.69,8.25,5.53,15.19,5.53,3.83,0,6.87-.36,9.11-1.08,2.24-.72,3.87-1.34,4.88-1.84l1.3,6.08c-1.01.58-2.91,1.27-5.7,2.06-2.78.8-6.06,1.19-9.82,1.19-4.92,0-9.11-.72-12.58-2.17-3.47-1.45-6.33-3.47-8.57-6.08-2.24-2.6-3.87-5.7-4.88-9.28-1.01-3.58-1.52-7.5-1.52-11.77Zm39.82-4.45c-.15-5.86-1.52-10.42-4.12-13.67-2.6-3.25-6.29-4.88-11.07-4.88-2.53,0-4.79.51-6.78,1.52-1.99,1.01-3.73,2.37-5.21,4.07-1.48,1.7-2.64,3.67-3.47,5.91-.83,2.24-1.32,4.59-1.46,7.05h32.11Z"/><path class="cls-1" d="m232.01,424.26c0,4.41-.63,8.43-1.9,12.04-1.27,3.62-3.04,6.69-5.32,9.22-2.28,2.53-4.97,4.5-8.08,5.91-3.11,1.41-6.55,2.12-10.31,2.12s-7.2-.7-10.31-2.12c-3.11-1.41-5.8-3.38-8.08-5.91-2.28-2.53-4.05-5.6-5.32-9.22-1.27-3.62-1.9-7.63-1.9-12.04s.63-8.43,1.9-12.04c1.26-3.62,3.04-6.71,5.32-9.28,2.28-2.57,4.97-4.56,8.08-5.97,3.11-1.41,6.55-2.12,10.31-2.12s7.2.71,10.31,2.12c3.11,1.41,5.8,3.4,8.08,5.97,2.28,2.57,4.05,5.66,5.32,9.28,1.26,3.62,1.9,7.63,1.9,12.04Zm-7.49,0c0-7.01-1.63-12.6-4.88-16.76-3.25-4.16-7.67-6.24-13.24-6.24s-9.98,2.08-13.24,6.24c-3.25,4.16-4.88,9.75-4.88,16.76s1.63,12.58,4.88,16.71c3.26,4.12,7.67,6.18,13.24,6.18s9.98-2.06,13.24-6.18c3.26-4.12,4.88-9.69,4.88-16.71Z"/><path class="cls-1" d="m287.06,450.51c-2.1.72-4.77,1.41-8.03,2.06-3.25.65-7.38.98-12.37.98-4.12,0-7.87-.67-11.23-2.01-3.36-1.34-6.26-3.27-8.68-5.8-2.42-2.53-4.3-5.6-5.64-9.22-1.34-3.62-2.01-7.7-2.01-12.26,0-4.27.56-8.19,1.68-11.77,1.12-3.58,2.77-6.67,4.94-9.28,2.17-2.6,4.83-4.63,7.97-6.08,3.15-1.45,6.74-2.17,10.8-2.17,3.69,0,6.89.53,9.6,1.57,2.71,1.05,4.68,2.04,5.91,2.98v-30.2h7.05v81.19Zm-7.05-44.16c-.65-.51-1.46-1.05-2.44-1.63-.98-.58-2.11-1.12-3.42-1.63-1.3-.51-2.71-.92-4.23-1.25-1.52-.33-3.11-.49-4.77-.49-3.47,0-6.38.62-8.73,1.84-2.35,1.23-4.25,2.88-5.7,4.94-1.45,2.06-2.5,4.49-3.15,7.27-.65,2.79-.98,5.73-.98,8.84,0,7.38,1.84,13.04,5.53,16.98,3.69,3.94,8.57,5.91,14.65,5.91,3.47,0,6.27-.16,8.41-.49,2.13-.33,3.74-.67,4.83-1.03v-39.27Z"/><path class="cls-1" d="m160.86,453.44c-4.34,0-8.17-.69-11.5-2.06-3.33-1.37-6.09-3.34-8.3-5.91-2.21-2.57-3.89-5.64-5.04-9.22-1.16-3.58-1.74-7.54-1.74-11.88s.6-8.43,1.79-12.04c1.19-3.62,2.91-6.73,5.15-9.33,2.24-2.6,4.95-4.61,8.14-6.02,3.18-1.41,6.76-2.12,10.74-2.12,3.04,0,5.88.25,8.52.76,2.64.51,4.68,1.16,6.13,1.95l-1.84,6.08c-1.45-.72-3.07-1.3-4.88-1.74-1.81-.43-4.23-.65-7.27-.65-6.22,0-10.94,2.01-14.16,6.02-3.22,4.01-4.83,9.71-4.83,17.09,0,3.33.36,6.38,1.08,9.17.72,2.79,1.9,5.17,3.53,7.16,1.63,1.99,3.72,3.54,6.29,4.67,2.57,1.12,5.7,1.68,9.39,1.68,3.04,0,5.59-.34,7.65-1.03,2.06-.69,3.56-1.28,4.5-1.79l1.52,6.08c-1.3.72-3.35,1.43-6.13,2.12-2.78.69-5.7,1.03-8.73,1.03Z"/><path class="cls-1" d="m86.56,369.32c3.04,0,5.82.31,8.35.92,2.53.62,4.48,1.21,5.86,1.79l-3.15,12.91c-1.45-.65-3.02-1.14-4.72-1.46-1.7-.33-3.27-.49-4.72-.49-1.95,0-3.6.27-4.94.81-1.34.54-2.39,1.28-3.15,2.22-.76.94-1.3,2.06-1.63,3.36-.33,1.3-.49,2.71-.49,4.23v4.93h13.58v13.45h-13.58v40.24h-16.17v-58.84c0-7.38,2.08-13.24,6.24-17.58,4.16-4.34,10.32-6.51,18.5-6.51Z"/><path class="cls-1" d="m53.58,423.71c0,4.41-.54,8.43-1.63,12.04-1.08,3.62-2.68,6.73-4.77,9.33-2.1,2.6-4.7,4.63-7.81,6.08-3.11,1.45-6.69,2.17-10.74,2.17-2.24,0-4.34-.22-6.29-.65-1.95-.43-3.83-1.05-5.64-1.84v21.48H.53v-75.19c1.45-.43,3.11-.85,4.99-1.25,1.88-.4,3.85-.74,5.91-1.03,2.06-.29,4.16-.52,6.29-.71,2.13-.18,4.18-.27,6.13-.27,4.7,0,8.9.71,12.59,2.12,3.69,1.41,6.8,3.4,9.33,5.97,2.53,2.57,4.47,5.7,5.8,9.38,1.34,3.69,2.01,7.81,2.01,12.37Zm-16.49.43c0-4.99-1.12-8.99-3.36-11.99-2.24-3-5.57-4.5-9.98-4.5-1.45,0-2.79.05-4.01.16-1.23.11-2.24.24-3.04.38v29.18c1.01.65,2.33,1.19,3.96,1.63,1.63.43,3.27.65,4.94.65,7.67,0,11.5-5.17,11.5-15.51Z"/><path class="cls-2" d="m115.98,290.7c0,32.03,25.97,57.99,58,57.99v-115.4h58.51c31.97,0,57.89-25.9,57.89-57.88h-72.99c10.09-17.26,15.87-37.33,15.87-58.76,0-.14,0-.28,0-.43h57.27c32.02,0,57.97-26.11,57.97-58.12h-130.97C197.33,23.36,159.71,0,116.63,0,52.21,0,0,52.22,0,116.64v117.32c0,32.03,25.97,57.97,58,57.97v-74.51c17.07,9.98,36.79,15.74,57.98,15.86v57.42ZM57.86,116.64c0-32.45,26.31-58.76,58.76-58.76s58.77,26.31,58.77,58.76-26.31,58.76-58.77,58.76-58.76-26.31-58.76-58.76Z"/></g></svg>